<svg width="974" height="975" viewBox="0 0 974 975" fill="none" xmlns="http://www.w3.org/2000/svg">
<mask id="path-1-inside-1_1801_55" fill="white">
<path d="M974 487C974 357.84 922.691 233.969 831.361 142.639C740.031 51.3088 616.16 9.75134e-06 487 0C357.84 -9.75134e-06 233.969 51.3088 142.639 142.639C51.3088 233.969 1.95027e-05 357.84 0 487L487 487H974Z"/>
</mask>
<path d="M974 487C974 357.84 922.691 233.969 831.361 142.639C740.031 51.3088 616.16 9.75134e-06 487 0C357.84 -9.75134e-06 233.969 51.3088 142.639 142.639C51.3088 233.969 1.95027e-05 357.84 0 487L487 487H974Z" fill="#0D2F26" stroke="#103F32" stroke-width="8" mask="url(#path-1-inside-1_1801_55)"/>
<mask id="path-2-inside-2_1801_55" fill="white">
<path d="M4.25749e-05 487.002C3.12833e-05 616.162 51.3088 740.033 142.639 831.363C233.969 922.693 357.84 974.002 487 974.002C616.16 974.002 740.031 922.693 831.361 831.363C922.691 740.033 974 616.162 974 487.002L487 487.002L4.25749e-05 487.002Z"/>
</mask>
<path d="M4.25749e-05 487.002C3.12833e-05 616.162 51.3088 740.033 142.639 831.363C233.969 922.693 357.84 974.002 487 974.002C616.16 974.002 740.031 922.693 831.361 831.363C922.691 740.033 974 616.162 974 487.002L487 487.002L4.25749e-05 487.002Z" fill="#EFE3DB" stroke="#EBDCD2" stroke-width="8" mask="url(#path-2-inside-2_1801_55)"/>
</svg>
