<svg width="46" height="62" viewBox="0 0 46 62" fill="none" xmlns="http://www.w3.org/2000/svg">
<path d="M40.8235 22.6744L4.96046 19.5368C3.77218 19.4311 2.67883 18.806 1.92017 17.7988C1.1615 16.7915 0.799438 15.4843 0.913365 14.1637L1.13125 11.6732C1.24838 10.3528 1.83195 9.1283 2.754 8.26809C3.67604 7.40789 4.86131 6.98221 6.04991 7.08441L7.20133 7.18515L7.69582 5.53974C8.17537 3.91868 9.13628 2.51756 10.4197 1.56797C11.7032 0.618392 13.2323 0.177198 14.7544 0.317319L34.5158 2.04622C36.0394 2.1726 37.4689 2.87296 38.568 4.0315C39.6671 5.19003 40.3698 6.73733 40.56 8.41749L40.7615 10.1213L41.9129 10.222C43.1012 10.3278 44.1945 10.9528 44.9532 11.96C45.7119 12.9673 46.0739 14.2746 45.96 15.5952L45.7421 18.0857C45.625 19.406 45.0414 20.6305 44.1194 21.4907C43.1973 22.3509 42.0121 22.7766 40.8235 22.6744ZM39.8179 28.4191C39.6302 28.1461 39.3927 27.9204 39.1203 27.7565C38.8479 27.5926 38.5468 27.4941 38.2359 27.4671L6.67647 24.706C6.36588 24.6787 6.05238 24.7234 5.75587 24.8374C5.45937 24.9514 5.18634 25.1321 4.95413 25.368C4.72192 25.604 4.5356 25.89 4.40701 26.208C4.27842 26.526 4.21036 26.8689 4.20716 27.2151L3.9637 52.7159C3.93498 54.5946 4.54705 56.4029 5.67732 57.7788C6.80759 59.1547 8.37261 59.9965 10.0589 60.1356L28.7525 61.7711C30.4375 61.927 32.125 61.3699 33.4771 60.2112C34.8292 59.0525 35.7461 57.3778 36.0441 55.5225L40.2325 30.3669C40.2897 30.0256 40.2824 29.6762 40.2111 29.3408C40.1397 29.0054 40.0058 28.6915 39.8179 28.4191ZM16.4481 43.1277C16.5343 42.1426 16.8815 41.2026 17.4457 40.4266C18.0099 39.6505 18.7659 39.0734 19.6181 38.768C20.4702 38.4627 21.3802 38.4429 22.2329 38.7112C23.0857 38.9795 23.843 39.5238 24.409 40.2752C24.975 41.0267 25.3243 41.9515 25.4127 42.9329C25.5012 43.9142 25.3248 44.908 24.9058 45.7884C24.4869 46.6689 23.8443 47.3965 23.0592 47.8794C22.2741 48.3622 21.3818 48.5785 20.4952 48.5009C19.3063 48.3969 18.2119 47.7724 17.453 46.7647C16.694 45.757 16.3325 44.4488 16.4481 43.1277Z" fill="#E39E05"/>
</svg>
