<svg width="15" height="21" viewBox="0 0 15 21" fill="none" xmlns="http://www.w3.org/2000/svg">
<path d="M13.5 7.16667H1.5C1.10234 7.16608 0.72112 6.99029 0.439932 6.67786C0.158743 6.36543 0.000535757 5.94185 0 5.50001V4.66668C0.000535757 4.22483 0.158743 3.80126 0.439932 3.48883C0.72112 3.1764 1.10234 3.00061 1.5 3.00001H1.88528L2.00168 2.43927C2.11382 1.88704 2.3922 1.39386 2.7908 1.04125C3.1894 0.68864 3.68435 0.49771 4.19385 0.500021H10.8061C11.3158 0.497722 11.8108 0.688759 12.2094 1.04154C12.608 1.39432 12.8864 1.8877 12.9983 2.4401L13.1147 3.00001H13.5C13.8977 3.00061 14.2789 3.1764 14.5601 3.48883C14.8413 3.80126 14.9995 4.22483 15 4.66668V5.50001C14.9995 5.94185 14.8413 6.36543 14.5601 6.67786C14.2789 6.99029 13.8977 7.16608 13.5 7.16667ZM13.333 9.1035C13.2627 9.01829 13.1773 8.95026 13.0821 8.90375C12.9869 8.85723 12.884 8.83325 12.78 8.83333H2.22C2.11607 8.83328 2.01327 8.85725 1.91812 8.9037C1.82297 8.95016 1.73756 9.01809 1.6673 9.10319C1.59705 9.18829 1.54349 9.28869 1.51003 9.39801C1.47656 9.50734 1.46393 9.62321 1.47293 9.73825L2.13293 18.2132C2.17797 18.8379 2.43375 19.4206 2.84905 19.8447C3.26434 20.2687 3.80849 20.5028 4.3725 20.5H10.6275C11.1915 20.5028 11.7357 20.2688 12.151 19.8447C12.5664 19.4207 12.8222 18.8379 12.8672 18.2132L13.5272 9.73825C13.5363 9.62326 13.5238 9.50742 13.4903 9.39813C13.4569 9.28884 13.4033 9.18849 13.333 9.1035ZM6 14.6667C6 14.337 6.08797 14.0148 6.2528 13.7407C6.41762 13.4666 6.65189 13.253 6.92597 13.1269C7.20006 13.0007 7.50166 12.9677 7.79264 13.032C8.08361 13.0963 8.35088 13.2551 8.56066 13.4881C8.77044 13.7212 8.9133 14.0182 8.97118 14.3415C9.02906 14.6648 8.99935 14.9999 8.88582 15.3045C8.77229 15.609 8.58003 15.8693 8.33335 16.0524C8.08668 16.2356 7.79667 16.3333 7.5 16.3333C7.10218 16.3333 6.72064 16.1577 6.43934 15.8452C6.15804 15.5326 6 15.1087 6 14.6667Z" fill="#FBEEE5"/>
</svg>
